<svg xmlns="http://www.w3.org/2000/svg" viewBox="0 0 24 24"><path fill="#1F0640" d="M0 2v20a2 2 0 0 0 2 2h20a2 2 0 0 0 2-2V2a2 2 0 0 0-2-2H2a2 2 0 0 0-2 2z"/><path fill="#D291FE" d="M22 1c.551 0 1 .449 1 1v20c0 .551-.449 1-1 1H2c-.551 0-1-.449-1-1V2c0-.551.449-1 1-1h20zm0-1H2a2 2 0 0 0-2 2v20a2 2 0 0 0 2 2h20a2 2 0 0 0 2-2V2a2 2 0 0 0-2-2z"/><path fill="#D291FE" d="M16.502 8.086c-2.145 0-3.367 1.93-3.367 4.29 0 2.178.99 4.125 3.63 4.125.826 0 1.483-.116 2.01-.38.067-.05.1-.1.1-.2v-1.254c0-.082-.05-.099-.117-.067-.527.232-1.036.31-1.63.31-1.517 0-2.16-.906-2.178-2.257h2.605c.875 0 1.469-.033 1.667-.066.082-.017.115-.045.132-.127.05-.181.085-.577.085-1.057 0-1.484-.759-3.317-2.937-3.317zm1.22 3.173c-.049.016-.23.016-.742.016l-.002-.002h-2.013c.098-.89.511-1.732 1.468-1.732 1.04 0 1.306.999 1.306 1.544 0 .049-.017.106-.017.174zM9.509 5.446c-.016-.082-.05-.1-.116-.1H7.297c-.05 0-.083.034-.083.1-.016.495-.048.64-.098.82l-2.84 9.933c-.016.115 0 .15.1.15h1.468c.098 0 .131-.03.148-.113l.792-2.986.003-.002h3.2l.825 3.002c.017.066.065.096.147.096h1.65c.083 0 .099-.048.083-.13L9.509 5.446zm-2.311 6.18c.414-1.552.956-3.53 1.17-4.7h.016c.246 1.17.926 3.594 1.206 4.7H7.198z"/></svg>