<svg xmlns="http://www.w3.org/2000/svg" enable-background="new 0 0 512 512" version="1" viewBox="0 0 512 512"><path fill="#9E8CFF" d="M93.867,12.801h324.267c51.733,0,93.867,42.133,93.867,93.867v311.467
			c0,51.733-42.133,93.867-93.867,93.867H93.867c-51.733,0-93.867-42.133-93.867-93.867V106.668
			C0.001,54.934,42.134,12.801,93.867,12.801"/><path fill="#0B004D" d="M98.133,34.134h315.733c42.667,0,76.8,34.133,76.8,76.8v302.933c0,42.667-34.133,76.8-76.8,76.8H98.133
			c-42.667,0-76.8-34.133-76.8-76.8V110.934C21.333,68.268,55.466,34.134,98.133,34.134"/><path fill="#FFF" d="M349.48,357.244h23.349v21.73H139.171V145.828h23.519v23.519h23.349v23.519h23.349v23.519h23.349v23.519
				h23.349v23.519h23.349v23.263h23.264l0.085,0.085v23.434h23.292l0.057,0.057v23.462h23.32l0.028,0.028V357.244z M209.388,145.828
				h-23.349v23.519h23.349V145.828z M232.737,169.347h-23.349v23.519h23.349V169.347z M256.085,192.866h-23.349v23.519h23.349
				V192.866z M279.434,216.385h-23.349v23.519h23.349V216.385z M302.783,239.905h-23.349v23.519h23.349V239.905z M326.131,263.168
				h-23.349v23.519h23.349V263.168z M349.48,286.687h-23.349v23.519h23.349V286.687z M372.829,310.206H349.48v23.519h23.349V310.206
				z M279.434,169.347h-23.349v23.519h23.349V169.347z M326.131,216.385h-23.349v23.519h23.349V216.385z M372.829,263.168H349.48
				v23.519h23.349V263.168z M326.131,169.347h-23.349v23.519h23.349V169.347z M372.829,216.385H349.48v23.519h23.349V216.385z"/><path fill="#9E8CFF" d="M349.48,357.244h23.349v21.73H139.171V145.828h23.519v23.519h23.349v23.519h23.349v23.519h23.349v23.519
				h23.349v23.519h23.349v23.263h23.264l0.085,0.085v23.434h23.292l0.057,0.057v23.462h23.32l0.028,0.028V357.244z M209.388,145.828
				h-23.349v23.519h23.349V145.828z M232.737,169.347h-23.349v23.519h23.349V169.347z M256.085,192.866h-23.349v23.519h23.349
				V192.866z M279.434,216.385h-23.349v23.519h23.349V216.385z M302.783,239.905h-23.349v23.519h23.349V239.905z M326.131,263.168
				h-23.349v23.519h23.349V263.168z M349.48,286.687h-23.349v23.519h23.349V286.687z M372.829,310.206H349.48v23.519h23.349V310.206
				z M279.434,169.347h-23.349v23.519h23.349V169.347z M326.131,216.385h-23.349v23.519h23.349V216.385z M372.829,263.168H349.48
				v23.519h23.349V263.168z M326.131,169.347h-23.349v23.519h23.349V169.347z M372.829,216.385H349.48v23.519h23.349V216.385z" opacity=".15"/></svg>