<svg xmlns="http://www.w3.org/2000/svg" data-name="Layer 1" viewBox="0 0 512 512"><polygon fill="#94b0ff" points="341.33 206.73 341.33 108.2 426.67 157.47 426.67 256 341.33 206.73"/><polyline fill="#557beb" points="341.33 108.2 426.67 58.94 512 108.2 426.67 157.47"/><polyline fill="#e9eefc" points="426.67 157.47 512 108.2 512 206.73 426.67 256"/><line x1="298.67" x2="384" y1="231.37" y2="182.1" fill="none" stroke="#0e329c" stroke-linecap="round" stroke-linejoin="round" stroke-width="3"/><polyline fill="#e9eefc" points="256 256 341.33 206.73 341.33 305.27 256 354.53"/><polygon fill="#94b0ff" points="0 206.73 0 108.2 85.33 157.47 85.33 256 0 206.73"/><polyline fill="#557beb" points="0 108.2 85.33 58.94 170.66 108.2 85.33 157.47"/><polyline fill="#e9eefc" points="85.33 157.47 170.66 108.2 170.66 206.73 85.33 256"/><polyline fill="#e9eefc" points="426.67 354.53 512 305.27 512 403.8 426.67 453.06"/><line x1="128" x2="212.88" y1="182.1" y2="231.11" fill="none" stroke="#0e329c" stroke-linecap="round" stroke-linejoin="round" stroke-width="3"/><polygon fill="#94b0ff" points="170.67 305.26 170.67 206.73 256 256 256 354.53 170.67 305.26"/><line x1="298.67" x2="384" y1="280.63" y2="329.9" fill="none" stroke="#0e329c" stroke-linecap="round" stroke-linejoin="round" stroke-width="3"/><polyline fill="#557beb" points="341.33 305.27 426.67 256 512 305.27 426.67 354.53"/><polygon fill="#94b0ff" points="341.33 403.8 341.33 305.27 426.67 354.53 426.67 453.06 341.33 403.8"/><polyline fill="#557beb" points="170.67 206.73 256 157.47 341.33 206.73 256 256"/><line x1="128" x2="212.88" y1="329.9" y2="280.63" fill="none" stroke="#0e329c" stroke-linecap="round" stroke-linejoin="round" stroke-width="3"/><polygon fill="#94b0ff" points="0 403.8 0 305.27 85.33 354.53 85.33 453.06 0 403.8"/><polyline fill="#557beb" points="0 305.27 85.33 256 170.66 305.27 85.33 354.53"/><polyline fill="#e9eefc" points="85.33 354.53 170.67 305.27 170.67 403.8 85.33 453.06"/></svg>