<svg xmlns="http://www.w3.org/2000/svg" width="307.692" height="300"><defs><radialGradient id="a" cx="117.022" cy="207.973" r="220.369" gradientTransform="matrix(.973 0 0 .942 2.515 3.053)" gradientUnits="userSpaceOnUse"><stop offset="0" stop-color="#34364e" stop-opacity=".98"/><stop offset="1" stop-color="#0c0824"/></radialGradient></defs><g data-name="adobe photoshop-cc"><path fill="url(#a)" d="M24.8 155.549h282.054v274.359H24.8Z" data-name="Path 68" transform="translate(-11.983 -142.729)"/><path fill="#31c5f0" d="M12.82 12.82h282.051v274.359H12.82ZM0 300h307.692V0H0Zm207.436-176.923c-10.128 0-13.589 5.128-13.589 9.359 0 4.615 2.307 7.82 15.9 14.872 20.128 9.744 26.41 19.1 26.41 32.821 0 20.513-15.641 31.538-36.8 31.538-11.154 0-20.77-2.308-26.282-5.513-.9-.385-1.026-1.025-1.026-2.052v-18.848c0-1.282.641-1.667 1.539-1.025a47.586 47.586 0 0 0 25.769 7.564c10.128 0 14.359-4.231 14.359-10 0-4.615-2.949-8.718-15.9-15.385-18.205-8.718-25.769-17.564-25.769-32.307 0-16.539 12.949-30.256 35.384-30.256 11.026 0 18.718 1.667 22.949 3.59a2.839 2.839 0 0 1 1.282 2.564v17.564c0 1.026-.641 1.667-1.923 1.282-5.641-3.589-13.974-5.768-22.307-5.768ZM97.179 138.333c2.949.256 5.257.256 10.385.256 15 0 29.1-5.256 29.1-25.641 0-16.282-10.128-24.487-27.179-24.487-5.128 0-10 .256-12.308.385Zm-22.82-68.079c0-.9 1.8-1.539 2.82-1.539 8.206-.385 20.385-.641 33.077-.641 35.513 0 49.358 19.487 49.358 44.359 0 32.564-23.59 46.538-52.564 46.538-4.872 0-6.538-.256-10-.256v49.231c0 1.025-.385 1.538-1.538 1.538H75.9c-1.025 0-1.539-.385-1.539-1.538V70.254Z" data-name="Path 69"/></g></svg>