<svg xmlns="http://www.w3.org/2000/svg" enable-background="new 0 0 512 512" version="1" viewBox="0 0 512 512"><path fill="#00E4BB" d="M93.867,12.801h324.267c51.733,0,93.867,42.133,93.867,93.867v311.467
			c0,51.733-42.133,93.867-93.867,93.867H93.867c-51.733,0-93.867-42.133-93.867-93.867V106.668
			C0.001,54.934,42.134,12.801,93.867,12.801"/><path fill="#002620" d="M98.133,34.134h315.733c42.667,0,76.8,34.133,76.8,76.8v302.933c0,42.667-34.133,76.8-76.8,76.8H98.133
			c-42.667,0-76.8-34.133-76.8-76.8V110.934C21.333,68.268,55.466,34.134,98.133,34.134"/><path fill="#FFF" d="M203.652,150.085c-0.84-1.68-0.84-1.68-2.521-1.68H156.6c-0.84,0-1.68,0-1.68,1.68
			c0.262,5.653-0.305,11.315-1.68,16.804L93.584,376.101c-0.84,2.521,0,3.361,1.68,3.361h31.088c2.521,0,3.361,0,3.361-1.68
			l16.804-63.016l67.217-0.84l17.644,63.016c0.84,1.68,1.68,1.68,3.361,1.68h34.449c1.68,0,1.68-0.84,1.68-2.521L203.652,150.085z
			 M155.76,280.317c8.402-31.928,20.165-73.939,24.366-98.305c5.251,24.366,19.325,74.779,25.206,98.305H155.76z M417.905,345.014
			c0,1.68,0,9.242,0.84,21.845c0,1.68-0.84,1.68-1.68,2.521c-20.522,8.641-42.444,13.481-64.696,14.284
			c-29.407,0-62.176-11.763-62.176-62.176V212.26c-0.189-1.203,0.634-2.332,1.837-2.521c0.226-0.036,0.457-0.036,0.683,0h31.928
			c1.203-0.189,2.332,0.634,2.521,1.837c0.036,0.226,0.036,0.457,0,0.683v105.867c0,20.165,6.722,31.088,27.727,31.088
			c8.04,0.137,16.03-1.29,23.526-4.201V210.58c0-1.68,0.84-2.521,1.68-2.521h34.449c1.203-0.189,2.332,0.634,2.521,1.837
			c0.036,0.226,0.036,0.457,0,0.683L417.905,345.014L417.905,345.014z"/><path fill="#00E4BB" d="M203.652,150.085c-0.84-1.68-0.84-1.68-2.521-1.68H156.6c-0.84,0-1.68,0-1.68,1.68
				c0.262,5.653-0.305,11.315-1.68,16.804L93.584,376.101c-0.84,2.521,0,3.361,1.68,3.361h31.088c2.521,0,3.361,0,3.361-1.68
				l16.804-63.016l67.217-0.84l17.644,63.016c0.84,1.68,1.68,1.68,3.361,1.68h34.449c1.68,0,1.68-0.84,1.68-2.521L203.652,150.085z
				 M155.76,280.317c8.402-31.928,20.165-73.939,24.366-98.305c5.251,24.366,19.325,74.779,25.206,98.305H155.76z M417.905,345.014
				c0,1.68,0,9.242,0.84,21.845c0,1.68-0.84,1.68-1.68,2.521c-20.522,8.641-42.444,13.481-64.696,14.284
				c-29.407,0-62.176-11.763-62.176-62.176V212.26c-0.189-1.203,0.634-2.332,1.837-2.521c0.226-0.036,0.457-0.036,0.683,0h31.928
				c1.203-0.189,2.332,0.634,2.521,1.837c0.036,0.226,0.036,0.457,0,0.683v105.867c0,20.165,6.722,31.088,27.727,31.088
				c8.04,0.137,16.03-1.29,23.526-4.201V210.58c0-1.68,0.84-2.521,1.68-2.521h34.449c1.203-0.189,2.332,0.634,2.521,1.837
				c0.036,0.226,0.036,0.457,0,0.683L417.905,345.014L417.905,345.014z" opacity=".15"/></svg>