<svg xmlns="http://www.w3.org/2000/svg" width="512" height="512" viewBox="0 0 512 512"><path fill="#9CC6D4" d="M6.998 11.998h499.004v486.004H6.998z"/><path fill="#293243" d="M45.008 51.016h421.987v407.969H45.008z"/><path d="M359 210l-26 19-19-17-19 31-110-89-31 5-3 201 134 99h182V287zM45.008 51.001h421.987v13.998H45.008z" opacity=".302"/><g fill="#9CC6D4"><path d="M151.022 153.999h33.818v174.438h76.161v31.466H151.022V153.999zM285.195 259.09c0-20.163-.274-34.521-1.1-47.963h29.419l1.101 28.411h1.1c6.599-21.079 22.271-31.771 36.568-31.771 3.299 0 5.224.306 7.973.917v35.438c-2.749-.611-5.773-1.222-9.897-1.222-16.223 0-27.22 11.609-30.244 28.411-.551 3.36-1.101 7.332-1.101 11.608v76.985h-33.818V259.09z"/></g></svg>